<?xml version="1.0" standalone="no"?>
<!DOCTYPE svg PUBLIC "-//W3C//DTD SVG 20010904//EN"
 "http://www.w3.org/TR/2001/REC-SVG-20010904/DTD/svg10.dtd">
<svg version="1.0" xmlns="http://www.w3.org/2000/svg"
 width="300.000000pt" height="300.000000pt" viewBox="0 0 300.000000 300.000000"
 preserveAspectRatio="xMidYMid meet">
<metadata>
Created by potrace 1.15, written by Peter Selinger 2001-2017
</metadata>
<g transform="translate(0.000000,300.000000) scale(0.100000,-0.100000)"
fill="#000000" stroke="none">
<path d="M1435 2903 c-30 -8 -96 -59 -117 -90 -21 -33 -23 -97 -4 -135 l14
-27 -116 0 c-166 1 -223 -14 -295 -77 -69 -62 -77 -116 -24 -169 34 -34 79
-51 159 -62 l46 -6 -76 -60 c-119 -93 -322 -312 -322 -346 0 -6 -4 -11 -10
-11 -5 0 -10 -7 -10 -15 0 -8 -4 -15 -10 -15 -5 0 -10 -6 -10 -13 0 -7 -8 -22
-17 -33 -10 -11 -30 -44 -45 -74 -49 -102 -78 -165 -78 -172 0 -4 -5 -19 -10
-34 -10 -25 -13 -22 -60 75 -27 55 -52 101 -56 101 -24 0 -144 -112 -144 -134
0 -8 30 -42 68 -76 l67 -62 -123 62 c-68 33 -131 60 -140 58 -29 -6 -105 -189
-85 -209 11 -11 110 -32 248 -53 50 -8 78 -14 63 -15 -14 -1 -52 -11 -83 -23
-56 -21 -56 -22 -50 -54 9 -49 34 -104 50 -110 7 -3 46 20 87 50 l73 56 6
-172 c6 -162 23 -271 48 -302 5 -6 14 -27 20 -47 6 -20 30 -65 52 -100 134
-209 403 -376 744 -463 285 -72 675 -62 935 24 395 130 620 388 695 795 19
101 19 294 1 405 -26 155 -105 357 -187 477 -16 23 -29 46 -29 52 0 6 -4 11
-9 11 -5 0 -18 15 -28 33 -61 102 -311 319 -465 402 -49 27 -61 39 -92 99 -47
90 -85 142 -171 229 -111 114 -226 192 -328 222 -48 14 -140 18 -182 8z m525
-1558 c113 -37 211 -73 218 -79 9 -9 10 -24 4 -51 -6 -32 -16 -45 -52 -67 -43
-26 -52 -28 -200 -32 -85 -3 -166 -6 -180 -8 -36 -4 -73 73 -73 151 1 77 40
168 67 158 6 -2 103 -35 216 -72z m626 -6 c9 -18 17 -53 18 -78 l1 -46 -75 -7
c-81 -7 -165 -31 -192 -55 -14 -13 -21 -13 -60 0 -37 13 -44 20 -52 51 -9 40
1 60 34 69 16 4 17 2 8 -19 -9 -18 -7 -29 6 -49 20 -30 39 -32 66 -5 25 25 25
31 -1 64 -12 15 -20 28 -18 30 13 9 208 74 226 75 16 1 28 -9 39 -30z m-317
-228 c138 -52 335 -221 391 -334 31 -64 53 -187 33 -187 -6 0 -37 16 -69 35
-91 55 -199 82 -439 110 -163 19 -321 50 -341 66 -35 29 -4 86 92 173 81 72
220 153 266 155 10 1 40 -7 67 -18z m-515 -279 c3 -5 0 -27 -6 -49 -8 -32 -6
-53 6 -96 15 -51 23 -60 94 -114 89 -69 270 -180 307 -189 27 -7 81 24 197
113 l57 43 21 -29 c11 -17 28 -47 36 -67 19 -45 19 -46 -96 -104 -384 -194
-947 -181 -1375 31 -129 64 -143 74 -129 97 20 33 173 157 251 204 156 95 390
162 575 167 31 0 59 -3 62 -7z m112 -86 c22 -7 65 -16 97 -20 31 -4 57 -10 57
-14 -1 -7 -160 -72 -177 -72 -17 0 -41 34 -44 60 -6 65 1 70 67 46z m389 -65
c113 -13 215 -32 215 -40 -1 -22 -272 -191 -307 -191 -50 0 -263 127 -263 157
0 16 194 80 250 82 14 0 61 -3 105 -8z"/>
</g>
</svg>
